<svg xmlns="http://www.w3.org/2000/svg" viewBox="0 0 156.1 21.03"><defs><style>.cls-1{fill:#231f20;stroke:#231f20;stroke-miterlimit:10;stroke-width:0.25px;}</style></defs><title>Asset 2</title><g id="Layer_2" data-name="Layer 2"><g id="perfectly_normal" data-name="perfectly normal"><path class="cls-1" d="M4.71,11.68a2.53,2.53,0,0,1,1.3.66A3.83,3.83,0,0,1,7,13.73a3.67,3.67,0,0,1,.32,1.63,2.59,2.59,0,0,1-.45,1.36,2.53,2.53,0,0,1-1.14.88,2.35,2.35,0,0,1-1.15.19,2,2,0,0,1-1-.39l1.2,2.88-1.41.59L.16,13.3l1.4-.58.34.84a1.92,1.92,0,0,1,.42-1,2.59,2.59,0,0,1,2.39-.86Zm1,4.09a2.18,2.18,0,0,0-.16-1.45,2.26,2.26,0,0,0-.93-1.18,1.32,1.32,0,0,0-1.24,0,1.32,1.32,0,0,0-.85.9,2.21,2.21,0,0,0,.18,1.47,2.27,2.27,0,0,0,.91,1.16,1.35,1.35,0,0,0,1.24,0A1.36,1.36,0,0,0,5.7,15.77Z"/><path class="cls-1" d="M17,11.86l-3.83,1.4a1.85,1.85,0,0,0,.9,1,1.71,1.71,0,0,0,1.29,0A2.89,2.89,0,0,0,16.86,13l.78.84a3.25,3.25,0,0,1-.8.88,4.13,4.13,0,0,1-1.12.63,3.17,3.17,0,0,1-2.46,0,3.06,3.06,0,0,1-1.59-1.85,3.47,3.47,0,0,1-.21-1.66,2.72,2.72,0,0,1,.6-1.39,2.89,2.89,0,0,1,1.28-.88,2.49,2.49,0,0,1,2.11.07,3.18,3.18,0,0,1,1.43,1.82ZM13,11.27a2,2,0,0,0,0,1.22l2.6-1a1.78,1.78,0,0,0-.73-.94,1.23,1.23,0,0,0-1,0A1.31,1.31,0,0,0,13,11.27Z"/><path class="cls-1" d="M26.27,5.47l-.81.37a1.46,1.46,0,0,0-.93,2l1.07,3.06-1.45.5-2-5.66,1.37-.48.35,1a2.06,2.06,0,0,1,1.43-1.75l.43-.18Z"/><path class="cls-1" d="M35,3l1.57-.14L36.63,4l-1.58.15L35.51,9,34,9.1l-.45-4.82-1.15.11-.1-1.15,1.14-.1a2.59,2.59,0,0,1,.49-2,3.16,3.16,0,0,1,2-.92L36.5.14l.21,1.13-.57.08a1.58,1.58,0,0,0-1,.41,1.24,1.24,0,0,0-.22,1Z"/><path class="cls-1" d="M48.21,6.27l-4-.9a1.86,1.86,0,0,0,.22,1.31,1.73,1.73,0,0,0,1.1.67,2.88,2.88,0,0,0,1.91-.22l.2,1.12a3,3,0,0,1-1.14.31,4,4,0,0,1-1.29-.08,3.21,3.21,0,0,1-2.08-1.32,3.06,3.06,0,0,1-.32-2.41,3.38,3.38,0,0,1,.72-1.51,2.67,2.67,0,0,1,1.25-.85,3,3,0,0,1,1.56-.05,2.52,2.52,0,0,1,1.73,1.21,3.19,3.19,0,0,1,.22,2.3Zm-3.1-2.7a1.87,1.87,0,0,0-.69,1l2.69.61A1.76,1.76,0,0,0,47,4a1.23,1.23,0,0,0-.85-.59A1.3,1.3,0,0,0,45.11,3.57Z"/><path class="cls-1" d="M54.74,9.38a2.62,2.62,0,0,1-1-1.18,3.45,3.45,0,0,1-.2-1.66,3.42,3.42,0,0,1,.54-1.6,2.73,2.73,0,0,1,1.2-1A3.4,3.4,0,0,1,57,3.71,3.94,3.94,0,0,1,58.22,4a2.47,2.47,0,0,1,.92.64l-.55,1a3,3,0,0,0-.75-.55A2.48,2.48,0,0,0,57,4.92a1.58,1.58,0,0,0-1.28.38,2.08,2.08,0,0,0-.58,1.37,2,2,0,0,0,.3,1.45,1.57,1.57,0,0,0,1.18.62,2.33,2.33,0,0,0,.86-.08,2.63,2.63,0,0,0,.84-.38l.33,1.1a2.66,2.66,0,0,1-1.05.46,4.28,4.28,0,0,1-1.29.08A3.53,3.53,0,0,1,54.74,9.38Z"/><path class="cls-1" d="M69.35,8.44l-.2,1.12a4.55,4.55,0,0,1-.67,0,2.57,2.57,0,0,1-1.79-.78A2.24,2.24,0,0,1,66.28,7l.28-2.6-1.15-.12.13-1.15,1.14.13.2-1.78,1.52.16-.19,1.78,1.57.17L69.65,4.7l-1.57-.17L67.8,7.1c-.08.79.24,1.23,1,1.31A5.17,5.17,0,0,0,69.35,8.44Z"/><path class="cls-1" d="M78.28,3.5,79.72,4l-2.88,8.14-1.45-.51Z"/><path class="cls-1" d="M90.86,11.5,85,18.27l-1.48-.45,1.76-2-.71-6.23,1.54.48.39,4.53,2.9-3.53Z"/><path class="cls-1" d="M102.16,12.65a2.76,2.76,0,0,1,.64,1.82l.23,3.67-1.53.09-.22-3.58a1.58,1.58,0,0,0-.33-1,1,1,0,0,0-.84-.27,1.4,1.4,0,0,0-1,.48A1.53,1.53,0,0,0,98.75,15l.2,3.39-1.53.09-.36-6,1.49-.09.06.89a2,2,0,0,1,.77-.82,2.5,2.5,0,0,1,1.14-.34A2,2,0,0,1,102.16,12.65Z"/><path class="cls-1" d="M110.89,16.44a2.63,2.63,0,0,1-1.34-.72,3.44,3.44,0,0,1-.85-1.47,3.43,3.43,0,0,1-.13-1.69,2.68,2.68,0,0,1,.71-1.35,3.28,3.28,0,0,1,1.43-.84,3.24,3.24,0,0,1,1.65-.11,2.67,2.67,0,0,1,1.34.72,3.53,3.53,0,0,1,.84,1.47,3.42,3.42,0,0,1,.13,1.69,2.55,2.55,0,0,1-.7,1.35,3.24,3.24,0,0,1-1.42.84A3.29,3.29,0,0,1,110.89,16.44Zm2.24-2a2.36,2.36,0,0,0,0-1.5,2.3,2.3,0,0,0-.8-1.26,1.36,1.36,0,0,0-1.22-.15,1.38,1.38,0,0,0-.94.81,2.28,2.28,0,0,0,0,1.5,2.26,2.26,0,0,0,.8,1.26,1.36,1.36,0,0,0,1.22.14A1.41,1.41,0,0,0,113.13,14.4Z"/><path class="cls-1" d="M124.16,9.62l-.89.09c-1,.11-1.52.62-1.52,1.54v3.24h-1.54v-6h1.46V9.55a2,2,0,0,1,1.93-1.18l.46,0Z"/><path class="cls-1" d="M138.79,12.07a2.87,2.87,0,0,1,0,1.92l-1,3.53-1.47-.44,1-3.46a1.71,1.71,0,0,0,.06-1,.89.89,0,0,0-.63-.51,1.21,1.21,0,0,0-1,.13,1.8,1.8,0,0,0-.65,1l-.95,3.21L132.58,16l1-3.47a1.77,1.77,0,0,0,.07-1A.87.87,0,0,0,133,11a1.17,1.17,0,0,0-1,.14,1.76,1.76,0,0,0-.66,1l-.94,3.21-1.47-.44,1.69-5.74,1.44.42-.24.81a1.78,1.78,0,0,1,.92-.5,2.27,2.27,0,0,1,1.12.07,1.73,1.73,0,0,1,1.41,1.59,2,2,0,0,1,1-.57,2.27,2.27,0,0,1,1.21.05A1.85,1.85,0,0,1,138.79,12.07Z"/><path class="cls-1" d="M148.4,14a2.57,2.57,0,0,1,.61,1.89v3.64h-1.46v-.92a1.58,1.58,0,0,1-.65.75,2,2,0,0,1-1,.27,2.6,2.6,0,0,1-1.09-.25,2,2,0,0,1-.77-.68,1.71,1.71,0,0,1-.28-1,1.55,1.55,0,0,1,.34-1,2,2,0,0,1,1.1-.54,9.71,9.71,0,0,1,2.1-.17h.3v-.28a1.2,1.2,0,0,0-.26-.88,1.16,1.16,0,0,0-.87-.28,3.33,3.33,0,0,0-1,.17,5.46,5.46,0,0,0-1,.45l-.42-1a4.84,4.84,0,0,1,1.21-.53,5.2,5.2,0,0,1,1.35-.2A2.52,2.52,0,0,1,148.4,14Zm-1.24,4.11a1.49,1.49,0,0,0,.39-1.06v-.26h-.22a8.3,8.3,0,0,0-1.27.07,1.24,1.24,0,0,0-.65.25.64.64,0,0,0-.2.51.84.84,0,0,0,.27.64.92.92,0,0,0,.68.25A1.32,1.32,0,0,0,147.16,18.06Z"/><path class="cls-1" d="M154.43,9.56l1.53.12-.64,8.61-1.53-.11Z"/></g></g></svg>